


<svg xml:space="preserve" width="500" height="328.98999" version="1.1" style="clip-rule:evenodd;fill-rule:evenodd;image-rendering:optimizeQuality;shape-rendering:geometricPrecision;text-rendering:geometricPrecision" viewBox="0 0 5208.4025 3427.0964" id="svg812" xmlns="http://www.w3.org/2000/svg">
 <defs id="defs4"></defs>
 <g id="Layer_x0020_1" transform="translate(-9930.0876,-2493.3491)">
  
  
  
  
  
  
  
  
  <rect style="opacity:1;fill:#ffffff;fill-opacity:1;fill-rule:nonzero;stroke:none;stroke-width:2.74812;stroke-linecap:round;stroke-linejoin:round;stroke-miterlimit:4;stroke-dasharray:none;stroke-dashoffset:0;stroke-opacity:1" id="rect1749" width="5208.5103" height="3427.0881" x="9930.042" y="2493.3491"></rect>
  
  
  
  
  
  
  
  
  
  
  
  
  
  
  
  
  
  
  
  
  
  
  
  
  
  
  
  
  
  
  
  
  
  
  
  
  
  
  
  
  
  
  
  
  
  
  
  
  
  
  
  
  
  
  
  
  
  
  
  
  
  
  
  
  
  
  
  
  
  
  
  
  
  
  
  
  
  
  
  
  
  
  
  
  
  
  
  
  
  
  
  
  
  
  
  
  
  
  
  
  
  
  
  
  
  
  
  
  
  
  
  
  
  
  
  
  
  
  
  
  
  
  
  
  
  
  
  
  
  
  
  
  
  
  
  
  
  
  
  
  
  
  
  
  
  
  
  
  
  
  
  
  
  
  
  
  
  
  
  
  
  
  
  
  
  
  
  
  
  
  
  
  
  
  
  
  
  
  
  
  
  
  
  
  
  
  
  
  
  
  
  
  
  
  
  
  
  
  
  
  
  
  
  
  
  
  
  
  
  
  
  
  
  
  
  
  
  
  
  
  
  
  
  
  
  
  
  
  
  
  
  
  
  
  
  
  
  
  
  
  
  
  
  
  
  
  
  
  
  
  
  
  
  
  
  
  
  
  
  
  
  
  
  
  
  
  
  
  
  
  
  
  
  
  
  
  
  
  
  
  
  
  
  
  
  
  
  
  
  
  
  
  
  
  
  
  
  
  
  
  
  
  
  
  
  
  
  
  
  
  
  
  
  
  
  
  
  
  
  
  
  
  
  
  
  
  
  
  
  
  
  
  
  
  
  
  
  
  
  
  
  
  
  
  
  
  
  
  
  
  
  
  
  
  
  
  
  
  
  
  
  
  
  
  
  
  
  
  
  
  
  
  
  
  
  
  
  
  
  
  
  
  
  
  
  
  
  
  
  
  
  
  
  
 <g transform="matrix(2.0407778,0,0,2.1395603,6872.2074,-3005.5389)" style="clip-rule:evenodd;fill-rule:evenodd;image-rendering:optimizeQuality;shape-rendering:geometricPrecision;text-rendering:geometricPrecision" id="g1647-3-6"><path id="path7-4-5" d="m 3005,2768 c -1,-1 -2,-1 -3,-2 -5,-1 -10,3 -17,8 l -6,4 c -20,11 -36,61 -39,82 -1,0 -1,1 -2,1 -12,-21 -35,-41 -59,-44 9,36 41,144 83,134 21,-5 66,-94 66,-144 0,-1 0,-1 0,-2 0,-26 -12,-35 -23,-39 z" class="fil0" style="fill:#f58430;fill-rule:nonzero"></path><path id="path9-3-8" d="m 3288,3318 c -53,2 -70,-1 -121,16 -7,2 -13,7 -19,14 1,11 -6,28 4,32 1,0 0,2 1,3 3,3 6,3 9,7 2,3 4,0 6,1 1,1 1,3 2,3 5,2 10,1 15,4 3,2 5,2 8,2 2,-1 4,3 4,4 10,4 18,0 28,0 29,0 24,-3 53,-4 25,0 48,3 73,3 13,0 28,0 41,-1 23,-1 47,2 70,3 12,0 25,4 37,5 13,0 25,-3 38,-1 4,0 8,0 12,2 4,2 8,4 12,4 11,1 21,-3 32,-8 7,-2 13,-3 19,-7 3,-1 6,-6 7,-11 3,-9 6,-18 2,-28 -1,0 -2,1 -3,0 -1,-2 -1,-6 -2,-6 -5,-2 -9,-2 -14,-3 -6,-1 -13,-4 -19,-5 -29,-7 -195,-32 -295,-28 z" class="fil1" style="fill:#00ac83;fill-rule:nonzero"></path><path id="path11-7-2" d="m 2780,3337 c 5,1 11,1 14,5 3,3 -3,7 -2,11 0,9 3,16 3,25 0,1 -1,3 -2,4 -2,2 -4,4 -6,6 -7,5 -17,3 -25,5 -11,3 -23,5 -34,6 -20,2 -40,-2 -60,-3 -8,0 -16,1 -23,3 -9,2 -19,2 -28,2 -49,-2 -97,-3 -146,-2 -9,0 -18,1 -27,2 -39,2 -79,2 -118,3 -14,0 -27,1 -41,0 -8,0 -15,0 -22,1 -29,1 -59,3 -88,2 -11,0 -23,0 -34,0 -33,2 -66,7 -98,5 -24,-1 -47,-7 -69,-18 -15,-8 -27,-19 -35,-31 6,-7 14,-10 23,-12 22,-6 42,-10 64,-14 19,-3 36,-5 54,-6 236,-21 500,-13 603,-6 35,2 67,7 100,14 z" class="fil2" style="fill:#027ec2;fill-rule:nonzero"></path><path id="path13-6-5" d="m 3205,3117 c 0,1 0,1 0,3 2,5 6,7 10,11 4,0 9,0 14,0 0,-3 3,0 3,-3 3,0 8,-1 10,-5 1,0 1,0 2,0 2,-4 6,-7 10,-7 6,-7 11,-13 17,-20 0,-3 1,-5 3,-7 3,-12 6,-26 11,-38 0,-4 2,-9 1,-13 1,0 2,0 2,-1 -1,-5 2,-8 5,-11 2,0 4,0 6,-3 0,-1 0,-1 0,-3 6,0 12,4 16,9 3,0 4,0 7,0 0,3 1,3 3,4 6,0 19,-1 25,1 0,4 6,3 7,7 1,4 1,8 4,12 0,1 0,3 -2,4 3,4 6,11 2,15 1,5 0,12 3,18 -3,3 -1,7 -1,9 3,5 3,12 4,19 6,7 4,15 9,22 0,3 0,5 0,8 3,0 0,4 3,4 1,8 -3,18 -3,26 -2,1 -3,3 -4,4 0,1 0,1 0,3 -2,0 -3,0 -3,-1 -3,4 -7,7 -10,11 -3,-1 -4,1 -6,1 -3,0 0,4 -3,4 -3,0 -6,1 -7,3 -3,1 -13,-1 -16,1 l -1,-1 c -2,1 -3,3 -6,3 0,-1 0,-3 -1,-3 -2,4 -8,7 -12,5 -1,-3 -1,-5 -4,-6 -1,-9 -1,-16 -6,-23 1,0 1,-1 1,-2 -1,-4 -3,-7 -3,-11 -3,-5 -5,-12 -9,-16 1,-1 -2,-2 -1,-4 -2,-2 -3,-4 -6,-6 -2,0 -2,1 -3,2 -1,6 -7,11 -8,17 l -1,-1 c -1,4 -5,6 -5,10 -2,1 -3,5 -6,6 0,1 0,1 0,2 -8,7 -12,19 -22,24 -2,5 -8,6 -11,12 -4,0 -9,1 -13,3 -3,-1 -7,-4 -10,-1 0,-1 -2,-1 -3,-1 l -1,1 c -3,-3 -7,0 -12,-1 -9,-7 -19,-10 -29,-16 -3,0 0,-4 -3,-4 -1,0 -3,0 -4,-1 0,-4 1,-7 -3,-10 l 1,-1 c 0,-1 -1,-1 -3,-1 -1,-9 -6,-16 -7,-24 -2,-1 -2,-1 -3,-3 0,-4 -1,-8 -3,-11 -1,-6 4,-10 1,-16 0,-1 0,-3 1,-4 -1,-7 0,-11 1,-18 -1,0 -1,-1 -1,-3 3,-5 3,-11 3,-16 1,-4 4,-8 6,-12 l -1,-1 c 3,-3 1,-7 6,-9 0,-1 0,-3 -1,-3 0,-3 3,-4 4,-5 1,-3 7,-13 10,-15 l -1,-2 c 2,-3 9,-5 14,-5 4,0 11,3 13,4 2,3 0,6 2,10 1,0 1,0 2,0 0,1 0,1 0,3 0,1 1,1 2,1 1,4 3,8 2,12 0,1 1,1 2,1 -1,3 2,5 2,8 -2,3 0,7 -1,11 3,7 2,15 5,22 0,5 2,11 4,15 z" class="fil3" style="fill:#373435;fill-rule:nonzero"></path><path id="path15-9-3" d="m 2663,3167 c 0,0 5,4 7,6 1,3 4,6 6,7 3,1 6,3 6,3 l 2,4 5,4 c 5,1 6,-1 10,4 2,0 3,0 3,1 l 2,-1 c 2,3 5,4 6,6 5,0 9,2 12,5 2,0 2,3 2,2 5,1 8,5 12,2 2,0 3,0 3,1 l 2,-1 c 3,-1 4,2 7,1 2,0 2,1 2,3 2,0 2,0 3,0 3,3 17,-1 20,2 18,2 48,-2 48,-2 0,-3 5,0 5,-3 l 2,1 c 6,2 13,-5 19,-2 2,-1 2,-1 3,-3 3,-1 8,4 11,1 0,1 1,1 3,2 0,-1 0,-1 0,-3 5,-3 11,-2 14,-6 2,0 5,0 6,1 2,-1 2,-1 3,-2 8,-2 15,-8 24,-10 1,-2 5,-2 6,-5 1,0 3,0 5,0 1,-1 3,-3 4,-5 5,1 9,-6 13,-6 0,-1 0,-3 1,-3 l 2,1 c 3,-2 3,-2 4,-5 5,1 7,-5 10,-8 2,0 2,0 3,0 1,-2 1,-2 3,-3 2,0 2,0 3,-1 4,-3 6,-8 12,-10 0,-1 -1,-3 1,-3 3,1 3,-3 4,-5 1,-1 5,-4 6,-3 0,2 4,-6 4,-4 1,1 6,-12 8,-13 l -13,-34 c -5,7 -22,29 -31,31 0,7 -8,7 -13,11 0,1 1,3 -1,3 -5,1 -6,6 -9,7 0,-1 -2,-1 -3,-1 -1,2 -4,2 -5,5 -5,1 -6,5 -8,9 l -2,-1 c -5,5 -13,4 -17,11 -9,4 -16,6 -25,9 -2,0 -3,0 -3,-1 -1,3 -8,1 -9,3 -9,1 -17,0 -26,2 0,-3 -5,0 -5,-2 -8,3 -15,-1 -23,-1 -2,-1 -5,-1 -6,-4 -8,1 -12,0 -17,-4 -5,0 -8,-4 -12,-6 0,-1 0,-1 0,-3 -2,-1 -2,-1 -3,-3 0,-4 5,-4 8,-6 3,-4 11,-3 15,-7 0,-1 4,-4 4,-5 2,-3 3,-5 4,-5 5,-3 2,-6 8,-7 0,-1 5,-5 3,-6 6,-4 6,-6 8,-15 3,-4 8,-9 8,-14 2,-1 0,-7 3,-9 2,-10 -2,-15 -2,-24 -2,-1 -2,-1 -3,-3 0,-4 -3,-7 -2,-11 -5,-4 -3,-5 -8,-10 l -3,-3 c -2,0 -2,0 -3,0 -2,-3 -6,-4 -6,-7 -6,-1 -12,-5 -18,-8 l -2,1 -2,-1 c -2,1 -2,1 -3,3 0,-4 -5,0 -6,-3 -3,0 -6,-1 -9,1 -9,-3 -19,2 -29,-2 0,3 -6,-1 -6,3 -3,1 -8,1 -9,3 -2,0 -3,0 -5,0 -5,4 -9,9 -18,9 -3,0 0,4 -3,4 -2,0 -2,0 -3,0 -8,7 -14,15 -23,21 0,1 -3,3 -2,5 0,1 -2,1 -3,1 0,3 -2,4 -3,5 0,1 0,3 2,3 0,1 -2,5 -4,5 -2,5 -2,11 -6,14 0,11 -3,16 -4,28 1,6 2,16 2,22 5,3 -1,3 2,7 2,0 1,2 1,4 2,3 7,5 5,8 0,1 3,3 4,3 2,3 -2,6 1,7 0,1 5,0 4,3 l 3,6 z m 101,-89 c -3,1 0,4 -3,6 l 2,1 c -1,12 -9,28 -25,39 -2,0 -3,0 -3,-1 0,-3 -3,-7 -2,-10 0,-1 -2,-1 -3,-1 3,-3 -2,-6 0,-10 -2,0 -2,-1 -2,-3 5,-3 1,-10 6,-13 l -2,-2 c 2,-3 4,-7 7,-10 0,-1 0,-1 0,-3 6,-6 14,-8 22,-11 2,0 3,0 3,1 5,6 2,12 0,17 z" class="fil3" style="fill:#373435;fill-rule:nonzero"></path><path id="path17-8-3" d="m 3032,3064 c 0,2 0,4 1,6 11,10 9,28 16,40 -3,4 -1,10 -2,14 2,2 2,2 4,3 -3,10 4,19 3,28 -2,2 -2,2 -3,4 0,2 0,4 2,4 l -2,2 2,2 -2,2 c 2,0 2,2 2,4 -3,4 3,9 -2,14 2,2 2,4 2,6 -5,4 -2,13 -6,19 l 2,2 -2,2 -2,-2 c -2,0 -2,2 -2,4 2,4 6,7 2,11 l 2,2 c -6,4 -7,9 -9,15 -2,2 -2,2 -3,4 2,2 2,4 2,5 -3,4 -5,8 -9,11 0,2 2,5 -2,7 l 2,2 c -2,4 -3,9 -5,13 2,0 2,2 2,4 -5,4 -11,8 -9,15 -3,6 -8,8 -11,13 2,4 -6,5 -6,9 0,4 -5,2 -3,6 l 2,2 c -2,0 -2,0 -3,0 -2,4 -2,4 -5,6 0,2 0,4 -2,4 -3,2 -5,5 -8,9 2,2 -6,6 -4,6 -2,2 -4,3 -4,7 -2,0 -4,0 -4,2 v 2 c -1,1 -2,1 -4,2 -14,16 -34,22 -48,38 -4,2 -7,3 -11,5 -4,2 -2,7 -6,5 0,-2 -5,2 -7,2 -4,3 -10,1 -13,1 0,-2 -2,-1 -4,-3 l -2,2 c -2,-2 -6,-6 -7,-6 -2,-2 2,-4 0,-4 l 2,-2 c 0,-2 -3,-2 -5,-2 -3,-4 4,-1 2,-5 l -7,-1 c -2,-4 -5,-4 -6,-7 0,-4 8,-3 8,-7 4,0 2,0 6,-2 l -1,-3 c 4,-2 3,-5 5,-5 0,2 1,0 3,0 2,0 4,0 4,-2 0,-2 0,-4 2,-5 2,0 2,0 4,0 8,-7 3,-2 11,-11 0,-2 0,-2 0,-4 2,-2 2,-5 6,-7 0,2 0,4 1,4 6,-3 2,-5 1,-9 2,-2 2,-2 4,-3 0,2 3,0 1,0 0,2 2,-4 4,-4 4,-7 1,1 8,-11 1,-1 5,-3 5,-4 0,0 4,-2 3,-4 0,-1 0,-2 -3,0 2,-4 8,-9 9,-13 5,2 1,-6 5,-6 -2,2 -4,-2 -4,0 h 6 c 4,-3 -5,-3 -2,-7 0,-2 -1,-3 -2,-3 0,-2 -1,-3 1,-3 l 2,2 c 2,-2 -2,-8 2,-10 0,-2 0,-4 0,-6 5,-4 3,-3 5,-9 l -2,-2 c 0,2 4,-2 2,-2 0,-2 0,-2 0,-4 3,-2 6,-14 6,-18 0,4 -4,-8 -1,-7 5,-8 2,-18 2,-27 -4,-1 3,-4 1,-7 -2,0 -4,0 -4,-1 2,-2 2,-2 3,-4 0,-2 0,-4 -2,-3 0,-2 0,-4 1,-4 0,-2 0,-4 -2,-3 2,-2 2,-2 3,-4 0,-2 -2,-2 -4,-1 1,-8 -7,-13 -4,-21 -2,0 -2,-2 -2,-3 5,-6 -2,-13 1,-19 -4,-1 -2,-5 -3,-9 2,-2 -3,-4 -3,-6 -4,-9 -3,-16 -6,-25 -3,3 -6,-25 -9,-36 -5,-7 -2,-15 -4,-23 2,0 4,0 4,-2 -2,-5 3,-8 4,-14 4,0 7,-3 12,0 4,-2 1,-6 1,-8 8,-1 13,-2 21,-3 0,2 0,4 2,4 6,-1 8,3 14,2 0,2 0,4 2,4 4,-1 6,1 8,3 2,0 4,0 4,-2 l 2,2 2,-2 c 2,2 4,1 6,1 2,2 3,7 6,5 9,14 20,26 27,41 z" class="fil3" style="fill:#373435;fill-rule:nonzero"></path><path id="path19-5-5" d="m 2199,3098 c -1,-3 -5,-4 -7,-4 -2,0 -5,4 -7,1 0,0 -3,5 -7,7 -2,2 -6,1 -6,1 -1,5 -1,5 3,16 2,0 4,11 6,11 -1,-4 5,9 7,10 1,0 1,0 3,1 1,0 1,2 0,3 l 6,4 c 1,2 2,2 0,4 4,0 7,3 11,4 1,1 0,2 0,3 1,0 2,1 3,0 3,0 1,3 1,5 l 2,-1 c 0,2 3,3 3,3 4,6 22,13 27,18 l 2,-1 c 1,3 10,4 10,7 l 2,-1 c 1,1 13,4 16,6 2,-1 -1,-3 1,-4 2,2 6,6 8,7 0,0 5,0 9,1 5,5 14,2 20,4 1,1 2,2 3,2 l 2,-1 1,1 c 4,-2 6,0 8,-2 l 1,1 2,-1 c 1,1 1,1 1,3 5,1 10,3 15,1 1,1 2,2 3,2 2,-1 2,-1 4,-2 4,1 4,2 9,2 l 1,1 c 5,-3 9,-2 14,-1 1,-2 4,1 5,-2 l 1,2 c 4,-3 11,-1 15,-2 l 1,2 c 2,-1 1,0 1,0 4,-2 13,-2 15,-4 5,1 5,2 12,1 1,0 4,1 6,1 6,-4 10,-4 15,-1 6,-1 14,-5 19,-8 1,0 3,1 4,1 2,-1 3,0 5,-3 6,-2 11,-4 16,-8 1,2 4,-1 5,0 1,-1 1,-1 1,-2 3,1 5,-3 8,-2 1,-1 1,-1 1,-2 4,-1 3,-3 7,-4 4,-2 9,-11 17,-14 0,-3 5,-4 6,-6 1,-1 2,-1 3,-1 l -1,-1 c 2,-1 1,-5 3,-3 1,-1 3,-4 2,-5 4,-3 4,-13 10,-15 1,-1 1,-1 1,-2 2,-3 1,-9 3,-10 0,-1 0,-2 1,-2 2,-5 3,-12 4,-18 -1,0 -1,-1 0,-3 1,0 2,-1 2,-2 -1,0 -1,-2 0,-3 l 2,-1 c -2,-1 0,-4 -2,-4 l 2,-1 c -2,-6 1,-12 -1,-17 l 2,-1 c -3,-3 -2,-7 0,-10 -1,-2 0,-3 0,-4 -3,-2 1,-4 -1,-6 1,-4 -3,-7 0,-11 -2,-3 -2,-4 -4,-7 0,-1 1,-3 1,-4 -1,0 -2,-1 -2,-2 2,-2 0,-4 1,-6 -2,0 -1,-3 -2,-4 -1,-7 -3,-12 -6,-17 2,-2 -2,-12 -2,-15 l -2,-1 c -1,-3 -2,-5 -4,-6 0,-2 0,-2 0,-3 -1,0 -2,0 -2,-2 0,-1 0,-1 0,-3 l -1,1 c -2,-2 -3,-5 -3,-8 -4,-6 -6,-11 -13,-20 -3,2 0,-5 -3,-3 -3,-8 -6,-10 -11,-14 0,-2 0,-2 0,-3 -1,0 -1,0 -3,0 -1,0 -1,-2 -1,-3 -8,-5 -36,-9 -41,-17 -2,0 -5,-2 -6,1 -1,-2 -1,-2 -2,-3 -7,4 -12,-3 -18,-5 l -1,1 c -2,-5 -6,0 -9,0 -1,-2 -2,-2 -4,-2 -6,3 -12,0 -18,7 l -1,-2 14,26 c 0,1 4,18 7,26 1,0 3,3 4,5 0,1 0,1 -1,3 2,3 4,7 6,10 -1,0 -2,1 -2,3 2,5 1,10 3,15 2,2 0,3 2,5 0,0 -1,3 -1,3 -1,2 1,5 1,5 1,5 0,1 4,5 -3,4 2,11 -1,15 2,2 2,-1 2,1 -1,1 -1,1 -1,2 -1,1 1,2 2,2 1,3 -1,5 1,8 1,0 0,4 1,4 0,3 4,3 1,5 -1,0 -1,5 -2,9 1,1 0,8 0,9 1,0 2,-1 2,0 0,1 0,1 -1,2 1,0 1,2 1,4 0,4 -2,6 -4,9 -1,8 3,14 -3,17 2,2 0,4 -1,5 -2,1 -1,5 -3,5 -2,5 -3,4 -5,9 -3,2 -4,4 -7,6 -1,1 -1,1 -1,2 0,1 -2,1 -3,1 -2,2 -9,5 -10,8 l 1,1 c -4,2 -6,2 -10,5 -5,3 -8,3 -13,5 -4,-1 -8,2 -12,1 -2,1 -3,2 -5,3 -2,-1 -5,1 -7,-1 -2,-1 -2,3 -4,3 -1,0 -1,0 -2,-1 l -1,-1 c -3,2 -6,0 -9,1 l -1,-1 c -3,2 -6,0 -8,2 -3,-2 -9,-2 -13,-2 0,-1 -1,-1 -2,-2 l -2,1 c 0,-1 -9,-1 -10,-1 h -2 l -1,-1 -2,1 c -2,-2 -13,-3 -16,-6 -2,2 -4,1 -7,1 -10,-1 -23,-5 -24,-5 l -1,-2 c -4,2 -10,0 -11,-3 -1,0 -3,0 -4,-1 -1,-3 -9,-2 -11,-6 0,0 -4,-3 -6,-5 -3,2 -9,-6 -11,-7 h -4 l -2,-5 -6,-5 c -2,-5 -5,-1 -6,-5 z" class="fil3" style="fill:#373435;fill-rule:nonzero"></path><path id="path21-2-9" d="m 2294,2923 c 2,0 3,0 5,0 8,8 24,6 34,11 4,-3 9,-1 12,-3 1,2 1,2 3,3 9,-3 14,2 23,1 2,-1 2,-1 4,-3 2,0 3,0 3,2 l 2,-1 1,2 2,-1 c -1,2 1,2 3,2 4,-3 7,1 12,-3 1,2 3,2 4,2 5,-4 7,0 13,-2 l 1,2 2,-1 -1,-2 c 1,-2 2,-1 4,-1 3,2 4,6 9,3 l 1,2 c 3,-2 -19,-3 15,-4 2,-1 2,-1 4,-2 1,2 2,2 4,3 4,-2 8,-3 12,-4 2,0 4,3 7,0 l 1,2 c 4,0 9,-1 12,-1 -1,1 -2,-2 -1,-1 5,-3 11,-6 16,-2 6,-1 8,-4 14,-4 2,3 7,-3 9,-1 3,1 3,-2 5,0 v 2 c 1,-1 1,-1 2,-2 4,0 4,0 7,-1 1,1 3,2 4,0 3,-1 6,-1 10,-2 1,2 4,-1 3,0 2,-1 4,-1 7,1 1,-1 2,-2 3,-2 l 2,1 c 2,0 2,0 3,-2 18,-2 28,-10 46,-10 3,-1 6,-3 9,-4 3,-1 6,2 7,-1 -1,-1 4,-2 5,-3 4,0 7,-8 9,-11 -1,-1 0,-2 0,-4 h 2 c 0,-2 -1,-11 0,-12 0,-2 -4,-1 -3,-2 l -1,-1 c -1,-1 0,-3 1,-4 -1,-4 -5,1 -6,-2 l 3,-5 c -2,-3 -8,-5 -11,-6 -2,2 -2,1 -5,3 l -1,-2 c -3,2 -5,0 -6,1 1,1 -1,1 -2,2 -1,1 -2,2 -3,2 -1,-1 -3,-2 -5,-1 -1,1 -1,1 -2,2 -9,1 -28,2 -30,-1 -2,1 -2,1 -4,1 1,1 -1,2 0,1 1,1 -4,-1 -5,1 -7,0 -22,2 -19,0 -4,0 -10,2 -13,0 -1,5 -6,-3 -7,0 2,-1 -3,-1 -1,0 v 2 c -4,1 -5,-3 -9,-1 -1,-1 -2,-1 -1,-3 -1,-1 -2,-1 -3,0 l 1,2 c -2,1 -6,-4 -9,-2 -1,-1 -3,-1 -4,-2 -5,3 -10,3 -16,3 l -1,-2 c 2,0 -3,3 -2,1 -2,0 -2,0 -3,-1 -3,2 -14,2 -17,2 3,1 -6,-5 -6,-2 -8,3 -17,-2 -25,-2 -1,-3 -4,2 -7,0 1,-1 1,-3 -1,-3 -2,1 -4,1 -6,2 -2,0 -3,0 -3,-2 -2,0 -3,0 -4,1 -2,0 -3,0 -3,-2 -2,1 -4,3 -6,4 -2,0 -1,-2 -1,-3 -7,1 -11,-5 -18,-3 0,-1 -1,-2 -3,-2 -6,4 -14,0 -20,2 -1,-3 -4,-2 -8,-2 -2,1 -3,-2 -5,-2 -7,-3 -14,-2 -21,-3 3,-3 -22,-3 -32,-5 -6,-3 -13,0 -20,-2 0,2 -1,3 -2,3 -5,-2 -7,3 -13,5 -1,3 -4,5 -3,7 -2,3 -3,4 -4,4 -1,6 -2,6 -4,12 2,0 3,0 3,2 -1,5 2,6 0,11 2,0 3,0 3,2 -1,3 0,5 2,6 0,2 -1,3 -2,3 l 1,2 -2,1 c 1,2 1,3 0,5 1,2 6,2 4,5 12,7 21,15 33,20 z" class="fil3" style="fill:#373435;fill-rule:nonzero"></path></g><path style="clip-rule:evenodd;fill:#727376;fill-rule:nonzero;stroke-width:0.728254;image-rendering:optimizeQuality;shape-rendering:geometricPrecision;text-rendering:geometricPrecision" d="m 11523.308,4742.893 c 0,0 10.17,304.2676 10.919,366.6579 l 37.146,-20.0028 13.113,-342.2841 z m 10.919,366.6579 -0.711,0.3853 h 0.726 c 0,-0.068 0,-0.3132 0,-0.3853 z m 1115.695,-366.6579 c 0.729,19.6628 1.449,38.5971 2.177,58.2599 -16.021,-2.913 -42.236,-8.0011 -48.792,-8.0011 l 1.468,37.131 48.065,-4.3709 c 0,11.6521 0.726,24.0372 0.726,37.1458 -16.749,-0.7282 -40.785,0.7306 -52.436,-0.7261 l -0.726,32.0341 53.888,-5.8229 c 0.729,18.2063 0.725,37.879 1.452,59.7267 l 37.872,-16.032 c 1.457,-15.2932 13.844,-128.1698 17.484,-184.9735 z m 342.285,0 c 0,0 10.189,305.1415 10.918,367.0431 l 40.051,-20.388 6.564,-179.1505 c 20.39,3.6412 59.712,9.4678 59.712,9.4678 1.457,-12.3802 2.904,-38.5978 2.904,-38.5978 0,0 -42.228,2.9145 -61.891,4.371 l 5.067,-138.419 z m 63.325,4.3266 0.757,0.046 -0.726,-0.7262 z m 320.46,-4.3266 c 0,0 10.191,305.1415 10.92,367.0431 l 40.05,-20.388 13.114,-342.2841 z m -1924.769,10.92 c 0,0 2.91,43.7033 5.824,128.1806 l 0.725,0.7261 c -24.032,-1.4565 -52.436,-3.6449 -52.436,-3.6449 l 2.919,40.0647 c 0,0 45.874,-8.0137 50.244,-8.7419 2.912,61.1732 2.918,179.8765 2.918,179.8764 l 35.679,-17.4838 v -1.4519 c 0.729,-10.9239 10.92,-306.5904 10.92,-306.5904 z m 1720.86,1.467 5.097,34.9529 c 0,0 88.842,-0.7214 127.44,-2.1781 v -0.7405 l 1.452,-26.211 c -35.685,0 -113.599,-5.0948 -133.989,-5.823 z m -1098.937,0.726 6.549,132.5368 c 32.77,0.7282 142.018,-0.72 239.603,2.1928 h 0.725 l -1.451,-31.3229 c -29.13,3.6413 -146.386,4.3778 -186.441,2.193 v -26.2258 c 56.805,0 117.975,0.732 184.974,3.6449 v -30.582 c -55.348,2.1846 -103.411,4.365 -184.247,1.4521 v -22.5808 c 48.793,1.4564 128.91,2.1972 185.714,0.7402 l 0.726,-29.8707 c -109.966,2.1847 -213.381,2.9197 -246.153,-2.1781 z m -183.521,1.4519 c -32.772,13.8369 -206.829,5.0971 -206.829,5.0971 l 2.92,29.856 c 0,0 124.533,0.741 134.729,0.741 -52.435,47.3366 -160.941,106.3259 -160.941,106.3259 l 29.856,13.824 -0.726,-0.7259 c 0,0 88.111,-40.0574 128.166,-61.9048 34.955,20.391 95.404,54.6258 115.067,65.5498 l 2.178,0.7259 21.13,-42.2429 c 0,0 -99.057,-37.8629 -107.067,-40.776 6.554,-3.6411 80.841,-41.5168 80.841,-41.5168 z m 643.777,0.7261 1.452,59.0008 c -17.479,0.7282 -55.346,0 -68.454,0 l -1.452,-49.5327 -54.614,-5.0971 15.29,158.7626 c 0,0 92.481,-2.913 152.198,0 v 0.7259 l 8.742,-158.7625 z m 1248.23,2.1929 -249.796,1.4521 5.096,171.8754 248.33,-0.7412 h 0.726 l -0.726,-33.4862 c 0,0 -143.462,7.282 -190.07,5.0971 -0.729,-7.2824 -3.645,-100.4989 -3.645,-111.4227 93.216,-3.6413 187.166,1.4521 187.166,1.4521 z m -2377.023,21.8401 c 0,0 -29.125,5.8378 -40.049,5.8378 -16.75,0 -99.776,-2.9188 -99.776,-2.9188 l 7.289,36.405 c 0,0 83.012,-5.0948 99.762,-5.8231 -27.674,53.1625 -120.891,192.2634 -120.891,192.2634 l 25.484,10.1941 c 0,0 29.87,-33.4969 74.292,-88.1158 13.837,16.7497 43.7,54.6191 56.808,82.2927 l 1.453,3.645 30.582,-45.8878 -1.452,-1.4521 c -2.163,-2.1631 -44.264,-42.8126 -70.544,-59.8748 3.108,-3.8962 65.446,-85.0489 65.446,-85.0489 z m 1526.418,2.1928 c -12.38,2.1849 -29.124,5.8253 -45.872,5.097 -39.327,-0.7283 -83.031,-2.1884 -108.52,-3.6449 l 8.016,38.5979 c 63.358,-2.913 111.422,-7.275 111.422,-7.275 -17.477,30.5865 -91.04,129.6277 -137.647,189.3445 l 24.032,11.6461 c 18.934,-16.7499 50.247,-50.9817 83.018,-85.9379 16.022,16.0216 47.345,48.0628 75.019,83.0188 l 24.758,-49.5178 c -22.575,-17.4781 -58.264,-40.05 -80.84,-54.615 32.77,-35.6843 64.094,-70.6399 80.115,-87.3898 l 0.725,0.7261 z m 369.948,29.856 c -10.924,2.9131 -32.04,5.0971 -49.518,5.0971 -40.783,-0.7283 -75.734,-2.919 -103.408,-2.919 l 8.743,38.598 c 37.868,-2.9131 105.584,-9.4681 105.584,-9.4681 -21.847,34.9563 -83.739,111.4232 -128.892,164.5856 l 25.485,11.6609 c 21.848,-18.9347 50.984,-46.6158 80.115,-75.0176 41.51,37.869 73.552,75.0176 73.552,75.0176 l 26.209,-48.066 c -24.761,-17.4779 -57.532,-37.8658 -77.194,-49.5177 l 74.291,-74.2918 h -0.741 z m -814.838,31.7525 c 19.184,-0.069 39.806,0.4764 50.185,1.0224 l 1.45,48.0658 -67.726,0.7261 -1.454,-49.5181 h -0.74 c 5.643,-0.182 11.89,-0.2737 18.285,-0.2966 z m -112.223,76.0252 c -187.162,8.011 -348.108,1.4522 -348.108,1.4522 h -0.726 l 11.646,32.0488 c 172.597,-6.5542 333.543,-3.645 333.543,-3.645 z m -388.157,8.7421 c -187.162,8.0107 -352.48,1.4519 -352.48,1.4519 l -0.725,0.7261 11.646,32.0488 c 0,0 53.902,-2.1907 131.826,-2.919 8.009,82.2928 9.468,105.604 9.468,147.8426 l 50.244,-23.3069 c 0,0 7.274,-94.675 7.274,-125.2616 4.369,0 139.102,-0.726 139.102,-0.726 z m 1641.483,17.4839 c 0,0 4.365,70.6413 6.55,91.7607 -56.803,0 -153.666,-3.645 -153.666,-3.645 l 3.645,34.9531 c 0,0 190.802,-4.363 344.463,-2.1781 l 2.192,-33.5009 c 0,0 -63.351,2.9013 -142.716,3.6302 0.06,-2.1539 3.615,-85.9231 3.615,-85.9231 z m -934.349,11.6459 c -50.978,4.3695 -219.942,0.7261 -219.942,0.7261 l 7.29,30.582 c 27.674,0 134.72,-1.452 157.295,-1.452 l -2.178,26.2258 c -32.771,-0.7283 -119.426,-2.1862 -157.294,-4.3709 l 16.742,83.7447 c 69.913,-1.4563 203.91,-1.452 203.91,-1.452 l 2.918,-32.0489 c -37.14,5.8261 -112.887,5.8254 -157.31,5.097 v 1.4522 l -4.371,-28.3892 c 61.173,1.4565 144.197,-1.4669 144.197,-1.4669 z m -366.318,26.211 c 0,0 -204.642,1.4691 -255.62,0.7413 l 5.112,29.13 c 97.586,-2.9135 189.345,-0.7414 189.345,-0.7414 0,0 4.358,73.5604 3.631,94.6798 l 45.886,-21.8548 z" id="path23-2"></path><path style="fill:#f58430;fill-opacity:1;stroke:none;stroke-width:12.5737px;stroke-linecap:butt;stroke-linejoin:miter;stroke-opacity:1" d="m 11688.907,5624.0809 c 479.854,-337.8372 1277.566,-437.3076 1880.454,-9.3348 l -45.398,227.9508 h -1835.056 z" id="path1785"></path><path style="clip-rule:evenodd;opacity:1;fill:#027ec2;fill-opacity:1;fill-rule:nonzero;stroke:none;stroke-width:2.74812;stroke-linecap:round;stroke-linejoin:round;stroke-miterlimit:4;stroke-dasharray:none;stroke-dashoffset:0;stroke-opacity:1;image-rendering:optimizeQuality;shape-rendering:geometricPrecision;text-rendering:geometricPrecision" d="m 10053.545,5497.1143 c -68.4309,0.1062 -99.1358,0.5589 -123.5025,0.9577 v 422.3654 h 2765.7745 l 105.673,-160.6996 c -1034.006,-242.4123 -2306.944,-263.3082 -2747.945,-262.6235 z" id="rect1749-2-6"></path><path style="clip-rule:evenodd;fill:#00ac83;fill-opacity:1;fill-rule:evenodd;stroke:none;stroke-width:6.28685;stroke-linecap:butt;stroke-linejoin:miter;stroke-miterlimit:4;stroke-dasharray:none;stroke-opacity:1;image-rendering:optimizeQuality;shape-rendering:geometricPrecision;text-rendering:geometricPrecision" d="m 11884.18,5920.4485 h 3254.374 v -371.2191 c -1126.384,-123.1349 -2331.058,78.7436 -3254.374,371.2191 z" id="path1751-8"></path></g>
</svg>
